HIERARCHY
ROOT joint_0
{
	OFFSET 0.000000 0.000000 0.000000
	CHANNELS 6 Xposition Yposition Zposition Zrotation Yrotation Xrotation 
	JOINT joint_1
	{
		OFFSET 0.000000 0.000000 0.000000
		CHANNELS 3 Zrotation Yrotation Xrotation
		JOINT joint_2
		{
			OFFSET 3.811170 -8.520760 0.839290
			CHANNELS 3 Zrotation Yrotation Xrotation
			JOINT joint_3
			{
				OFFSET 2.562200 -7.039590 0.000000
				CHANNELS 3 Zrotation Yrotation Xrotation
				JOINT joint_4
				{
					OFFSET 0.157640 -0.433110 2.322550
					CHANNELS 3 Zrotation Yrotation Xrotation
					End Site
					{
						OFFSET 0.000000 0.000000 0.000000
					}
				}
			}
		}
	}
	JOINT joint_5
	{
		OFFSET 0.000000 0.000000 0.000000
		CHANNELS 3 Zrotation Yrotation Xrotation
		JOINT joint_6
		{
			OFFSET -3.848050 -8.780180 0.839290
			CHANNELS 3 Zrotation Yrotation Xrotation
			JOINT joint_7
			{
				OFFSET -2.568260 -7.056230 0.000000
				CHANNELS 3 Zrotation Yrotation Xrotation
				JOINT joint_8
				{
					OFFSET -0.164730 -0.452590 2.363150
					CHANNELS 3 Zrotation Yrotation Xrotation
					End Site
					{
						OFFSET 0.000000 0.000000 0.000000
					}
				}
			}
		}
	}
	JOINT joint_9
	{
		OFFSET 0.028270 2.035590 -0.193380
		CHANNELS 3 Zrotation Yrotation Xrotation
		JOINT joint_10
		{
			OFFSET 0.056720 2.048850 -0.042750
			CHANNELS 3 Zrotation Yrotation Xrotation
			JOINT joint_11
			{
				OFFSET -0.054170 1.746240 0.172020
				CHANNELS 3 Zrotation Yrotation Xrotation
				JOINT joint_12
				{
					OFFSET 0.104070 1.761360 -0.123970
					CHANNELS 3 Zrotation Yrotation Xrotation
					End Site
					{
						OFFSET 0.000000 0.000000 0.000000
					}
				}
			}
			JOINT joint_13
			{
				OFFSET 3.362410 1.200890 -0.311210
				CHANNELS 3 Zrotation Yrotation Xrotation
				JOINT joint_14
				{
					OFFSET 4.983000 -0.000000 -0.000000
					CHANNELS 3 Zrotation Yrotation Xrotation
					JOINT joint_15
					{
						OFFSET 3.483560 -0.000000 -0.000000
						CHANNELS 3 Zrotation Yrotation Xrotation
						JOINT joint_16
						{
							OFFSET 0.715260 -0.000000 -0.000000
							CHANNELS 3 Zrotation Yrotation Xrotation
							End Site
							{
								OFFSET 0.000000 0.000000 0.000000
							}
						}
					}
				}
			}
			JOINT joint_17
			{
				OFFSET -3.136600 1.374050 -0.404650
				CHANNELS 3 Zrotation Yrotation Xrotation
				JOINT joint_18
				{
					OFFSET -5.241900 -0.000000 -0.000000
					CHANNELS 3 Zrotation Yrotation Xrotation
					JOINT joint_19
					{
						OFFSET -3.444170 -0.000000 -0.000000
						CHANNELS 3 Zrotation Yrotation Xrotation
						JOINT joint_20
						{
							OFFSET -0.622530 -0.000000 -0.000000
							CHANNELS 3 Zrotation Yrotation Xrotation
							End Site
							{
								OFFSET 0.000000 0.000000 0.000000
							}
						}
					}
				}
			}
		}
	}
}
MOTION
Frames: 7
Frame Time: 0.031667
4.847296 15.567984 -2.364512 -5.013435 -25.555210 3.808602 -7.387786 16.401547 -29.278825 -3.182533 12.263762 28.672045 -0.257557 3.970700 -8.801829 0.259348 -2.140092 -6.124983 1.836187 -8.992172 0.322435 11.762980 -9.402097 25.938137 -0.195283 -1.718106 -13.775741 -0.332733 -1.195355 3.519712 -2.630593 1.493752 -0.682641 5.032031 -0.210297 -4.152246 -1.958883 -0.732561 2.323942 -1.349433 -0.672559 4.357634 -40.536742 -30.408818 9.749411 51.125913 -52.954491 -19.211056 -0.841306 -2.638993 4.194147 -7.009774 -0.002669 -0.042403 78.760646 25.400773 38.849785 -70.964436 60.899688 -29.815207 0.787931 -0.576837 -1.319500 6.971945 -0.029100 -0.005271 
4.817107 15.564921 -2.375835 -4.960369 -25.233309 3.832239 -7.134369 21.696810 -29.059692 -1.628904 12.638334 26.151855 -0.315924 3.485288 -7.583064 0.225520 -1.719650 -4.991601 -1.591277 -13.176053 2.400908 10.466795 -9.394829 27.413243 -1.881125 -0.743871 -13.270784 -0.259465 -1.051586 3.213210 -0.462773 1.906638 -2.504985 1.076397 0.326275 -7.222811 -0.339692 0.750881 0.377518 -1.889419 -0.664658 3.949462 -39.840931 -31.840122 10.180079 53.383611 -57.353515 -21.559687 0.391566 -0.646084 3.054295 -7.005993 -0.002095 -0.040309 86.849284 26.384932 44.162740 -74.357421 65.877461 -31.761633 1.733680 -0.451397 -1.134983 6.959055 -0.016437 -0.004167 
4.786918 15.561857 -2.387158 -4.907456 -24.911741 3.856510 -6.995543 24.431102 -29.867495 -5.671442 13.415963 26.383329 -1.002404 2.853781 -10.705146 0.328072 -0.936979 -2.806094 -4.179796 -13.722774 1.176182 13.739513 -10.085503 27.562578 0.277226 -1.355322 -14.365592 0.108367 -0.474308 1.365270 0.321512 1.813726 -0.703380 2.357915 0.846586 -9.273885 -0.389479 1.513393 -1.669826 -1.890360 -0.757209 3.580176 -40.017583 -31.928436 9.041772 54.692371 -58.752468 -19.242187 0.014546 -1.719834 2.258412 -6.991317 -0.004458 -0.045374 85.591996 27.364581 37.538235 -76.256501 67.307594 -29.251911 2.222828 -0.572692 -2.152040 6.937638 -0.012313 -0.005083 
4.756367 15.558990 -2.397638 -4.866138 -24.549143 3.883723 -6.920773 25.177580 -30.277511 -5.951191 15.595700 25.876629 -0.647520 2.039434 -12.158930 0.545283 -0.184128 -0.717626 -3.614439 -14.614819 2.426467 17.669827 -10.200853 26.147945 -1.110925 -2.272336 -11.565079 0.422269 -0.085312 0.100877 0.665557 2.682383 -1.248674 0.688819 1.484566 -9.208255 -0.130553 0.245423 -2.250905 -1.784797 -0.693685 2.851879 -40.289100 -32.527137 7.336940 54.036420 -58.137430 -16.862487 -0.576241 -1.163120 1.986709 -6.977267 -0.003984 -0.049688 86.735992 27.539181 40.220037 -76.861813 68.016690 -28.130105 1.662437 -1.252721 -0.883479 6.917058 -0.011872 -0.006934 
4.725811 15.556126 -2.408110 -4.825040 -24.186731 3.911492 -7.915931 25.798038 -31.263869 -6.181662 14.044355 26.578513 1.016671 1.818089 -13.417818 0.657842 0.234656 0.410764 -4.141127 -15.359350 3.079556 17.682352 -10.533599 27.462941 0.271558 -2.896781 -11.794861 0.465219 -0.140840 0.342363 -1.298706 2.339417 -1.382576 -0.710765 1.370128 -11.187066 0.762061 -0.272687 -2.159362 -1.530829 -0.687909 1.787039 -39.982442 -32.981874 6.200616 54.544146 -58.507530 -15.745731 -1.745384 -2.249496 2.490339 -6.964342 -0.002954 -0.056149 87.876538 27.485045 39.507689 -78.498415 68.798050 -28.190721 2.897192 0.299881 -1.199987 6.900886 -0.009527 -0.007096 
4.695186 15.553324 -2.417671 -4.793570 -23.777342 3.938570 -7.436628 26.779022 -33.027407 -7.770763 14.384056 26.155190 0.088009 1.169774 -11.676604 0.575287 0.120142 -0.005493 -5.345473 -14.556878 2.713325 20.198604 -11.938161 27.021335 1.459115 -2.989459 -14.046324 0.503454 -0.502608 1.322498 0.727685 1.591698 -0.437058 0.108482 0.566204 -11.300497 0.280715 -0.112165 -2.861291 -1.069482 -0.635207 0.545350 -40.044921 -33.641578 4.818669 55.769055 -59.409354 -15.042855 -0.913249 -1.583923 1.534024 -6.953178 -0.004404 -0.059165 87.741471 27.661752 39.317267 -80.200996 69.339295 -28.981408 2.658239 -0.786060 -0.546235 6.889800 -0.006742 -0.004492 
4.664560 15.550523 -2.427211 -4.762252 -23.367880 3.965985 -8.709243 26.327323 -32.699647 -8.297553 14.510716 26.082355 0.302612 2.751233 -13.190637 0.223092 -0.448745 -1.750891 -6.709192 -14.818630 4.370539 22.426998 -11.023566 28.304862 0.080500 -3.338550 -11.276349 0.737803 -0.532542 1.141810 -1.638681 1.552476 -0.846972 -0.769604 1.763449 -13.252149 0.697590 0.599443 -4.295271 -0.814758 -0.328244 -0.137559 -39.911073 -33.641690 3.104249 57.620275 -61.001813 -14.468651 1.005529 0.149734 1.724480 -6.940395 -0.005463 -0.056584 88.524893 28.162760 40.106915 -82.989592 70.519033 -29.004443 3.319434 0.114631 0.260273 6.880577 -0.006251 -0.002841 
